<svg xmlns="http://www.w3.org/2000/svg" viewBox="0 0 100 100" aria-hidden="true">
  <circle cx="50" cy="50" r="48" fill="none" stroke="#1a237e" stroke-width="2"/>
  <circle cx="50" cy="50" r="6" fill="#1a237e"/>
  <g fill="none" stroke="#1a237e" stroke-width="1.2" stroke-linecap="round">
    <path d="M50 8 L50 20 M50 80 L50 92 M8 50 L20 50 M80 50 L92 50"/>
    <path d="M22 22 L30 30 M70 70 L78 78 M78 22 L70 30 M30 70 L22 78"/>
    <path d="M50 14 L53 26 L50 24 L47 26 Z" transform="rotate(0 50 50)"/>
    <path d="M50 14 L53 26 L50 24 L47 26 Z" transform="rotate(15 50 50)"/>
    <path d="M50 14 L53 26 L50 24 L47 26 Z" transform="rotate(30 50 50)"/>
    <path d="M50 14 L53 26 L50 24 L47 26 Z" transform="rotate(45 50 50)"/>
    <path d="M50 14 L53 26 L50 24 L47 26 Z" transform="rotate(60 50 50)"/>
    <path d="M50 14 L53 26 L50 24 L47 26 Z" transform="rotate(75 50 50)"/>
    <path d="M50 14 L53 26 L50 24 L47 26 Z" transform="rotate(90 50 50)"/>
    <path d="M50 14 L53 26 L50 24 L47 26 Z" transform="rotate(105 50 50)"/>
    <path d="M50 14 L53 26 L50 24 L47 26 Z" transform="rotate(120 50 50)"/>
    <path d="M50 14 L53 26 L50 24 L47 26 Z" transform="rotate(135 50 50)"/>
    <path d="M50 14 L53 26 L50 24 L47 26 Z" transform="rotate(150 50 50)"/>
    <path d="M50 14 L53 26 L50 24 L47 26 Z" transform="rotate(165 50 50)"/>
    <path d="M50 14 L53 26 L50 24 L47 26 Z" transform="rotate(180 50 50)"/>
    <path d="M50 14 L53 26 L50 24 L47 26 Z" transform="rotate(195 50 50)"/>
    <path d="M50 14 L53 26 L50 24 L47 26 Z" transform="rotate(210 50 50)"/>
    <path d="M50 14 L53 26 L50 24 L47 26 Z" transform="rotate(225 50 50)"/>
    <path d="M50 14 L53 26 L50 24 L47 26 Z" transform="rotate(240 50 50)"/>
    <path d="M50 14 L53 26 L50 24 L47 26 Z" transform="rotate(255 50 50)"/>
    <path d="M50 14 L53 26 L50 24 L47 26 Z" transform="rotate(270 50 50)"/>
    <path d="M50 14 L53 26 L50 24 L47 26 Z" transform="rotate(285 50 50)"/>
    <path d="M50 14 L53 26 L50 24 L47 26 Z" transform="rotate(300 50 50)"/>
    <path d="M50 14 L53 26 L50 24 L47 26 Z" transform="rotate(315 50 50)"/>
    <path d="M50 14 L53 26 L50 24 L47 26 Z" transform="rotate(330 50 50)"/>
    <path d="M50 14 L53 26 L50 24 L47 26 Z" transform="rotate(345 50 50)"/>
  </g>
</svg>
